<mxfile host="app.diagrams.net" agent="Mozilla/5.0 (Macintosh; Intel Mac OS X 10_15_7) AppleWebKit/605.1.15 (KHTML, like Gecko) Version/18.3.1 Safari/605.1.15" version="26.2.10">
  <diagram name="Page-1" id="lQxP0xsn9dwh4Z7V78RF">
    <mxGraphModel dx="2068" dy="1192" grid="1" gridSize="10" guides="1" tooltips="1" connect="1" arrows="1" fold="1" page="1" pageScale="1" pageWidth="827" pageHeight="1169" math="0" shadow="0">
      <root>
        <mxCell id="0" />
        <mxCell id="1" parent="0" />
        <mxCell id="nghysB6f6jKF5T_F9axY-2" value="Joueur" style="swimlane;whiteSpace=wrap;html=1;" vertex="1" parent="1">
          <mxGeometry x="10" y="20" width="330" height="310" as="geometry" />
        </mxCell>
        <mxCell id="nghysB6f6jKF5T_F9axY-3" value="Je veux atteindre la fin du niveau" style="rounded=0;whiteSpace=wrap;html=1;" vertex="1" parent="nghysB6f6jKF5T_F9axY-2">
          <mxGeometry x="10" y="30" width="310" height="60" as="geometry" />
        </mxCell>
        <mxCell id="nghysB6f6jKF5T_F9axY-6" value="Je dois coopérer avec l&#39;autre joueur" style="rounded=0;whiteSpace=wrap;html=1;" vertex="1" parent="nghysB6f6jKF5T_F9axY-2">
          <mxGeometry x="10" y="100" width="310" height="60" as="geometry" />
        </mxCell>
        <mxCell id="nghysB6f6jKF5T_F9axY-7" value="Récupérer les pièces" style="rounded=0;whiteSpace=wrap;html=1;" vertex="1" parent="nghysB6f6jKF5T_F9axY-2">
          <mxGeometry x="10" y="170" width="310" height="60" as="geometry" />
        </mxCell>
        <mxCell id="nghysB6f6jKF5T_F9axY-8" value="Ne pas mourir en évitant les pièges" style="rounded=0;whiteSpace=wrap;html=1;" vertex="1" parent="nghysB6f6jKF5T_F9axY-2">
          <mxGeometry x="10" y="240" width="310" height="60" as="geometry" />
        </mxCell>
        <mxCell id="nghysB6f6jKF5T_F9axY-9" value="Règle" style="swimlane;whiteSpace=wrap;html=1;" vertex="1" parent="1">
          <mxGeometry x="350" y="20" width="330" height="170" as="geometry" />
        </mxCell>
        <mxCell id="nghysB6f6jKF5T_F9axY-10" value="Si un joueur meurt le niveau est perdu" style="rounded=0;whiteSpace=wrap;html=1;" vertex="1" parent="nghysB6f6jKF5T_F9axY-9">
          <mxGeometry x="10" y="30" width="310" height="60" as="geometry" />
        </mxCell>
        <mxCell id="nghysB6f6jKF5T_F9axY-11" value="Le niveau est gagné quand le boss est vaincu" style="rounded=0;whiteSpace=wrap;html=1;" vertex="1" parent="nghysB6f6jKF5T_F9axY-9">
          <mxGeometry x="10" y="100" width="310" height="60" as="geometry" />
        </mxCell>
        <mxCell id="nghysB6f6jKF5T_F9axY-14" value="Piège" style="swimlane;whiteSpace=wrap;html=1;" vertex="1" parent="1">
          <mxGeometry x="10" y="390" width="330" height="170" as="geometry" />
        </mxCell>
        <mxCell id="nghysB6f6jKF5T_F9axY-15" value="Si le joueur me touche il meurt" style="rounded=0;whiteSpace=wrap;html=1;" vertex="1" parent="nghysB6f6jKF5T_F9axY-14">
          <mxGeometry x="10" y="30" width="310" height="60" as="geometry" />
        </mxCell>
        <mxCell id="nghysB6f6jKF5T_F9axY-16" value="Je suis static ou j&#39;ai des mouvements répéter" style="rounded=0;whiteSpace=wrap;html=1;" vertex="1" parent="nghysB6f6jKF5T_F9axY-14">
          <mxGeometry x="10" y="100" width="310" height="60" as="geometry" />
        </mxCell>
        <mxCell id="nghysB6f6jKF5T_F9axY-17" value="Boss" style="swimlane;whiteSpace=wrap;html=1;" vertex="1" parent="1">
          <mxGeometry x="350" y="390" width="330" height="170" as="geometry" />
        </mxCell>
        <mxCell id="nghysB6f6jKF5T_F9axY-18" value="Je fais apparaître et je contrôle des pièges" style="rounded=0;whiteSpace=wrap;html=1;" vertex="1" parent="nghysB6f6jKF5T_F9axY-17">
          <mxGeometry x="10" y="30" width="310" height="60" as="geometry" />
        </mxCell>
        <mxCell id="nghysB6f6jKF5T_F9axY-19" value="Je suis vaincu quand les joueurs atteigne un objectif" style="rounded=0;whiteSpace=wrap;html=1;" vertex="1" parent="nghysB6f6jKF5T_F9axY-17">
          <mxGeometry x="10" y="100" width="310" height="60" as="geometry" />
        </mxCell>
        <mxCell id="nghysB6f6jKF5T_F9axY-20" value="Pièces" style="swimlane;whiteSpace=wrap;html=1;" vertex="1" parent="1">
          <mxGeometry x="10" y="570" width="330" height="170" as="geometry" />
        </mxCell>
        <mxCell id="nghysB6f6jKF5T_F9axY-21" value="Je suis un objectif secondaire, me récupérer est un objectif secondaire" style="rounded=0;whiteSpace=wrap;html=1;" vertex="1" parent="nghysB6f6jKF5T_F9axY-20">
          <mxGeometry x="10" y="30" width="310" height="60" as="geometry" />
        </mxCell>
        <mxCell id="nghysB6f6jKF5T_F9axY-22" value="J&#39;attend sur place que le joueur me récupère" style="rounded=0;whiteSpace=wrap;html=1;" vertex="1" parent="nghysB6f6jKF5T_F9axY-20">
          <mxGeometry x="10" y="100" width="310" height="60" as="geometry" />
        </mxCell>
      </root>
    </mxGraphModel>
  </diagram>
</mxfile>
